<?xml version="1.0" encoding="UTF-8" standalone="no"?>
<svg width="100px" height="42px" viewBox="0 0 100 42" version="1.1" xmlns="http://www.w3.org/2000/svg" xmlns:xlink="http://www.w3.org/1999/xlink">
    <!-- Generator: Sketch 39.1 (31720) - http://www.bohemiancoding.com/sketch -->
    <title>AWIP</title>
    <desc>Created with Sketch.</desc>
    <defs>
        <linearGradient x1="100%" y1="0%" x2="2.48100717%" y2="100%" id="linearGradient-1">
            <stop stop-color="#B9E39C" offset="0%"></stop>
            <stop stop-color="#4F951F" offset="100%"></stop>
        </linearGradient>
    </defs>
    <g id="Page-1" stroke="none" stroke-width="1" fill="none" fill-rule="evenodd">
        <g id="Outlined" transform="translate(-405.000000, -131.000000)" fill="url(#linearGradient-1)">
            <path d="M405,136.994791 C405,133.68396 407.687681,131 410.993065,131 L499.006935,131 C502.316813,131 505,133.693047 505,136.994791 L505,166.537467 C505,169.848299 502.312319,172.532258 499.006935,172.532258 L410.993065,172.532258 C407.683187,172.532258 405,169.839212 405,166.537467 L405,136.994791 Z M428.441017,143.924316 L430.856018,143.924316 L437.613589,159.610744 L434.423129,159.610744 L432.960835,156.021477 L426.158952,156.021477 L424.74097,159.610744 L421.616978,159.610744 L428.441017,143.924316 Z M431.985973,153.628632 L429.570972,147.247712 L427.111659,153.628632 L431.985973,153.628632 Z M440.380624,143.924316 L443.438148,143.924316 L446.473516,155.445421 L446.517828,155.445421 L449.974159,143.924316 L452.854436,143.924316 L456.244299,155.445421 L456.288611,155.445421 L459.390447,143.924316 L462.359347,143.924316 L457.773061,159.610744 L455.070033,159.610744 L451.392142,147.845923 L451.34783,147.845923 L447.669938,159.610744 L444.96691,159.610744 L440.380624,143.924316 Z M467.297667,143.924316 L470.089319,143.924316 L470.089319,159.610744 L467.297667,159.610744 L467.297667,143.924316 Z M476.622869,143.924316 L481.740899,143.924316 C482.641913,143.924316 483.45429,144.005554 484.178055,144.168032 C484.901821,144.33051 485.522182,144.596379 486.039157,144.965647 C486.556132,145.334915 486.954936,145.807571 487.235579,146.383629 C487.516223,146.959687 487.656543,147.653901 487.656543,148.46629 C487.656543,149.337763 487.494067,150.068903 487.169111,150.659732 C486.844156,151.25056 486.404733,151.726909 485.850831,152.088792 C485.296929,152.450674 484.65072,152.712851 483.912184,152.875329 C483.173648,153.037807 482.390811,153.119044 481.563651,153.119044 L479.414522,153.119044 L479.414522,159.610744 L476.622869,159.610744 L476.622869,143.924316 Z M481.364247,150.770511 C481.822139,150.770511 482.257869,150.737278 482.671449,150.67081 C483.08503,150.604341 483.454292,150.486177 483.779248,150.316314 C484.104204,150.146451 484.362688,149.913815 484.554707,149.618401 C484.746726,149.322987 484.842735,148.938954 484.842735,148.46629 C484.842735,148.008398 484.746726,147.635443 484.554707,147.347414 C484.362688,147.059385 484.107896,146.834135 483.790326,146.671657 C483.472755,146.509179 483.110878,146.402093 482.704683,146.350395 C482.298488,146.298698 481.881222,146.272849 481.452871,146.272849 L479.414522,146.272849 L479.414522,150.770511 L481.364247,150.770511 Z" id="AWIP"></path>
        </g>
    </g>
</svg>