<?xml version="1.0" encoding="UTF-8" standalone="no"?>
<svg width="100px" height="42px" viewBox="0 0 100 42" version="1.1" xmlns="http://www.w3.org/2000/svg" xmlns:xlink="http://www.w3.org/1999/xlink">
    <!-- Generator: Sketch 39.1 (31720) - http://www.bohemiancoding.com/sketch -->
    <title>IGVP</title>
    <desc>Created with Sketch.</desc>
    <defs>
        <linearGradient x1="100%" y1="0%" x2="0%" y2="100%" id="linearGradient-1">
            <stop stop-color="#CD78F1" offset="0%"></stop>
            <stop stop-color="#4B1F95" offset="100%"></stop>
        </linearGradient>
    </defs>
    <g id="Page-1" stroke="none" stroke-width="1" fill="none" fill-rule="evenodd">
        <g id="Outlined" transform="translate(-523.000000, -131.000000)" fill="url(#linearGradient-1)">
            <path d="M523,136.994791 C523,133.68396 525.687681,131 528.993065,131 L617.006935,131 C620.316813,131 623,133.693047 623,136.994791 L623,166.537467 C623,169.848299 620.312319,172.532258 617.006935,172.532258 L528.993065,172.532258 C525.683187,172.532258 523,169.839212 523,166.537467 L523,136.994791 Z M542.848057,143.861541 L545.63971,143.861541 L545.63971,159.547969 L542.848057,159.547969 L542.848057,143.861541 Z M565.909961,158.728198 C565.112343,159.112236 564.23719,159.411339 563.284479,159.625514 C562.331767,159.83969 561.235058,159.946776 559.994317,159.946776 C558.724035,159.946776 557.564551,159.743682 556.51583,159.337487 C555.467109,158.931292 554.566108,158.362628 553.812801,157.631477 C553.059495,156.900326 552.472367,156.028867 552.051402,155.017073 C551.630436,154.005278 551.419956,152.886413 551.419956,151.660443 C551.419956,150.404932 551.637821,149.271296 552.073558,148.259501 C552.509294,147.247707 553.107499,146.387325 553.868191,145.678331 C554.628883,144.969336 555.526191,144.422828 556.560142,144.038789 C557.594092,143.65475 558.71665,143.462734 559.927849,143.462734 C561.183361,143.462734 562.331767,143.643672 563.373103,144.005555 C564.414439,144.367438 565.252665,144.843786 565.887806,145.434615 L563.960236,147.517276 C563.561427,147.074155 563.00384,146.697507 562.28746,146.387322 C561.57108,146.077137 560.791936,145.922046 559.950005,145.922046 C559.122845,145.922046 558.373242,146.069751 557.701174,146.365166 C557.029106,146.66058 556.45675,147.066769 555.984086,147.583744 C555.511423,148.10072 555.145854,148.70631 554.887366,149.400534 C554.628878,150.094758 554.499636,150.848053 554.499636,151.660443 C554.499636,152.502374 554.628878,153.274133 554.887366,153.975742 C555.145854,154.677351 555.515116,155.286634 555.995164,155.80361 C556.475213,156.320585 557.058648,156.723081 557.745486,157.01111 C558.432325,157.299139 559.211469,157.443151 560.082941,157.443151 C561.27937,157.443151 562.32069,157.25852 563.206933,156.889252 L563.206933,152.901177 L559.905693,152.901177 L559.905693,150.596956 L565.909961,150.596956 L565.909961,158.728198 Z M570.294382,143.861541 L573.418374,143.861541 L577.738788,155.936545 L577.827412,155.936545 L582.192139,143.861541 L585.205351,143.861541 L578.913055,159.547969 L576.498054,159.547969 L570.294382,143.861541 Z M589.789175,143.861541 L594.907204,143.861541 C595.808218,143.861541 596.620596,143.942779 597.344361,144.105257 C598.068126,144.267735 598.688487,144.533604 599.205463,144.902872 C599.722438,145.27214 600.121241,145.744796 600.401885,146.320854 C600.682529,146.896912 600.822848,147.591126 600.822848,148.403515 C600.822848,149.274988 600.660373,150.006127 600.335417,150.596956 C600.010461,151.187785 599.571039,151.664134 599.017137,152.026016 C598.463235,152.387899 597.817025,152.650075 597.078489,152.812553 C596.339953,152.975031 595.557117,153.056269 594.729956,153.056269 L592.580827,153.056269 L592.580827,159.547969 L589.789175,159.547969 L589.789175,143.861541 Z M594.530553,150.707736 C594.988445,150.707736 595.424175,150.674503 595.837755,150.608034 C596.251335,150.541566 596.620598,150.423402 596.945554,150.253539 C597.270509,150.083675 597.528993,149.85104 597.721013,149.555626 C597.913032,149.260211 598.00904,148.876178 598.00904,148.403515 C598.00904,147.945623 597.913032,147.572668 597.721013,147.284639 C597.528993,146.99661 597.274202,146.771359 596.956632,146.608882 C596.639061,146.446404 596.277184,146.339317 595.870989,146.28762 C595.464794,146.235922 595.047528,146.210074 594.619177,146.210074 L592.580827,146.210074 L592.580827,150.707736 L594.530553,150.707736 Z" id="IGVP"></path>
        </g>
    </g>
</svg>