<?xml version="1.0" encoding="UTF-8" standalone="no"?>
<svg width="100px" height="42px" viewBox="0 0 100 42" version="1.1" xmlns="http://www.w3.org/2000/svg" xmlns:xlink="http://www.w3.org/1999/xlink">
    <!-- Generator: Sketch 39.1 (31720) - http://www.bohemiancoding.com/sketch -->
    <title>VVWIP</title>
    <desc>Created with Sketch.</desc>
    <defs>
        <linearGradient x1="100%" y1="0%" x2="0%" y2="100%" id="linearGradient-1">
            <stop stop-color="#E76262" offset="0%"></stop>
            <stop stop-color="#C93333" offset="100%"></stop>
        </linearGradient>
    </defs>
    <g id="Page-1" stroke="none" stroke-width="1" fill="none" fill-rule="evenodd">
        <g id="Outlined" transform="translate(-287.000000, -131.000000)" fill="url(#linearGradient-1)">
            <path d="M287,136.994791 C287,133.68396 289.687681,131 292.993065,131 L381.006935,131 C384.316813,131 387,133.693047 387,136.994791 L387,166.537467 C387,169.848299 384.312319,172.532258 381.006935,172.532258 L292.993065,172.532258 C289.683187,172.532258 287,169.839212 287,166.537467 L287,136.994791 Z M295.308489,143.924316 L298.432481,143.924316 L302.752895,155.999321 L302.841519,155.999321 L307.206246,143.924316 L310.219458,143.924316 L303.927162,159.610744 L301.512161,159.610744 L295.308489,143.924316 Z M312.853556,143.924316 L315.977548,143.924316 L320.297963,155.999321 L320.386587,155.999321 L324.751313,143.924316 L327.764525,143.924316 L321.472229,159.610744 L319.057228,159.610744 L312.853556,143.924316 Z M330.753119,143.924316 L333.810643,143.924316 L336.846011,155.445421 L336.890323,155.445421 L340.346655,143.924316 L343.226931,143.924316 L346.616795,155.445421 L346.661107,155.445421 L349.762943,143.924316 L352.731843,143.924316 L348.145557,159.610744 L345.442528,159.610744 L341.764637,147.845923 L341.720325,147.845923 L338.042434,159.610744 L335.339405,159.610744 L330.753119,143.924316 Z M357.670163,143.924316 L360.461815,143.924316 L360.461815,159.610744 L357.670163,159.610744 L357.670163,143.924316 Z M366.995365,143.924316 L372.113394,143.924316 C373.014408,143.924316 373.826785,144.005554 374.550551,144.168032 C375.274316,144.33051 375.894677,144.596379 376.411652,144.965647 C376.928628,145.334915 377.327431,145.807571 377.608075,146.383629 C377.888718,146.959687 378.029038,147.653901 378.029038,148.46629 C378.029038,149.337763 377.866563,150.068903 377.541607,150.659732 C377.216651,151.25056 376.777229,151.726909 376.223327,152.088792 C375.669425,152.450674 375.023215,152.712851 374.284679,152.875329 C373.546143,153.037807 372.763307,153.119044 371.936146,153.119044 L369.787017,153.119044 L369.787017,159.610744 L366.995365,159.610744 L366.995365,143.924316 Z M371.736742,150.770511 C372.194635,150.770511 372.630365,150.737278 373.043945,150.67081 C373.457525,150.604341 373.826787,150.486177 374.151743,150.316314 C374.476699,150.146451 374.735183,149.913815 374.927202,149.618401 C375.119222,149.322987 375.21523,148.938954 375.21523,148.46629 C375.21523,148.008398 375.119222,147.635443 374.927202,147.347414 C374.735183,147.059385 374.480392,146.834135 374.162821,146.671657 C373.845251,146.509179 373.483374,146.402093 373.077179,146.350395 C372.670984,146.298698 372.253717,146.272849 371.825366,146.272849 L369.787017,146.272849 L369.787017,150.770511 L371.736742,150.770511 Z" id="VVWIP"></path>
        </g>
    </g>
</svg>