<?xml version="1.0" encoding="UTF-8" standalone="no"?>
<svg width="100px" height="42px" viewBox="0 0 100 42" version="1.1" xmlns="http://www.w3.org/2000/svg" xmlns:xlink="http://www.w3.org/1999/xlink">
    <!-- Generator: Sketch 39.1 (31720) - http://www.bohemiancoding.com/sketch -->
    <title>VWIP</title>
    <desc>Created with Sketch.</desc>
    <defs>
        <linearGradient x1="100%" y1="0%" x2="0%" y2="100%" id="linearGradient-1">
            <stop stop-color="#FFE000" offset="0%"></stop>
            <stop stop-color="#FFBD00" offset="100%"></stop>
        </linearGradient>
    </defs>
    <g id="Page-1" stroke="none" stroke-width="1" fill="none" fill-rule="evenodd">
        <g id="Outlined" transform="translate(-169.000000, -131.000000)" fill="url(#linearGradient-1)">
            <path d="M169,136.994791 C169,133.68396 171.687681,131 174.993065,131 L263.006935,131 C266.316813,131 269,133.693047 269,136.994791 L269,166.537467 C269,169.848299 266.312319,172.532258 263.006935,172.532258 L174.993065,172.532258 C171.683187,172.532258 169,169.839212 169,166.537467 L169,136.994791 Z M186.078561,143.924316 L189.202553,143.924316 L193.522967,155.999321 L193.611591,155.999321 L197.976317,143.924316 L200.989529,143.924316 L194.697234,159.610744 L192.282233,159.610744 L186.078561,143.924316 Z M203.978124,143.924316 L207.035648,143.924316 L210.071016,155.445421 L210.115328,155.445421 L213.571659,143.924316 L216.451936,143.924316 L219.841799,155.445421 L219.886111,155.445421 L222.987947,143.924316 L225.956847,143.924316 L221.370561,159.610744 L218.667533,159.610744 L214.989641,147.845923 L214.94533,147.845923 L211.267438,159.610744 L208.56441,159.610744 L203.978124,143.924316 Z M230.895167,143.924316 L233.686819,143.924316 L233.686819,159.610744 L230.895167,159.610744 L230.895167,143.924316 Z M240.220369,143.924316 L245.338398,143.924316 C246.239412,143.924316 247.05179,144.005554 247.775555,144.168032 C248.499321,144.33051 249.119682,144.596379 249.636657,144.965647 C250.153632,145.334915 250.552436,145.807571 250.833079,146.383629 C251.113723,146.959687 251.254043,147.653901 251.254043,148.46629 C251.254043,149.337763 251.091567,150.068903 250.766611,150.659732 C250.441655,151.25056 250.002233,151.726909 249.448331,152.088792 C248.894429,152.450674 248.24822,152.712851 247.509684,152.875329 C246.771148,153.037807 245.988311,153.119044 245.161151,153.119044 L243.012021,153.119044 L243.012021,159.610744 L240.220369,159.610744 L240.220369,143.924316 Z M244.961747,150.770511 C245.419639,150.770511 245.855369,150.737278 246.268949,150.67081 C246.682529,150.604341 247.051792,150.486177 247.376748,150.316314 C247.701704,150.146451 247.960187,149.913815 248.152207,149.618401 C248.344226,149.322987 248.440234,148.938954 248.440234,148.46629 C248.440234,148.008398 248.344226,147.635443 248.152207,147.347414 C247.960187,147.059385 247.705396,146.834135 247.387826,146.671657 C247.070255,146.509179 246.708378,146.402093 246.302183,146.350395 C245.895988,146.298698 245.478722,146.272849 245.050371,146.272849 L243.012021,146.272849 L243.012021,150.770511 L244.961747,150.770511 Z" id="VWIP"></path>
        </g>
    </g>
</svg>