<?xml version="1.0" encoding="UTF-8" standalone="no"?>
<svg width="100px" height="42px" viewBox="0 0 100 42" version="1.1" xmlns="http://www.w3.org/2000/svg" xmlns:xlink="http://www.w3.org/1999/xlink">
    <!-- Generator: Sketch 39.1 (31720) - http://www.bohemiancoding.com/sketch -->
    <title>WIP</title>
    <desc>Created with Sketch.</desc>
    <defs>
        <linearGradient x1="100%" y1="0%" x2="2.48100717%" y2="100%" id="linearGradient-1">
            <stop stop-color="#2A9CDF" offset="0%"></stop>
            <stop stop-color="#1F6995" offset="100%"></stop>
        </linearGradient>
    </defs>
    <g id="Page-1" stroke="none" stroke-width="1" fill="none" fill-rule="evenodd">
        <g id="Outlined" transform="translate(-51.000000, -131.000000)" fill="url(#linearGradient-1)">
            <path d="M51,136.994791 C51,133.68396 53.687681,131 56.9930648,131 L145.006935,131 C148.316813,131 151,133.693047 151,136.994791 L151,166.537467 C151,169.848299 148.312319,172.532258 145.006935,172.532258 L56.9930648,172.532258 C53.6831865,172.532258 51,169.839212 51,166.537467 L51,136.994791 Z M76.8486328,143.924316 L79.9061568,143.924316 L82.9415248,155.445421 L82.9858368,155.445421 L86.4421682,143.924316 L89.3224445,143.924316 L92.712308,155.445421 L92.75662,155.445421 L95.8584559,143.924316 L98.827356,143.924316 L94.24107,159.610744 L91.5380416,159.610744 L87.8601504,147.845923 L87.8158384,147.845923 L84.1379473,159.610744 L81.4349188,159.610744 L76.8486328,143.924316 Z M103.765676,143.924316 L106.557328,143.924316 L106.557328,159.610744 L103.765676,159.610744 L103.765676,143.924316 Z M113.090878,143.924316 L118.208907,143.924316 C119.109921,143.924316 119.922299,144.005554 120.646064,144.168032 C121.369829,144.33051 121.99019,144.596379 122.507166,144.965647 C123.024141,145.334915 123.422944,145.807571 123.703588,146.383629 C123.984232,146.959687 124.124552,147.653901 124.124552,148.46629 C124.124552,149.337763 123.962076,150.068903 123.63712,150.659732 C123.312164,151.25056 122.872742,151.726909 122.31884,152.088792 C121.764938,152.450674 121.118729,152.712851 120.380193,152.875329 C119.641656,153.037807 118.85882,153.119044 118.03166,153.119044 L115.88253,153.119044 L115.88253,159.610744 L113.090878,159.610744 L113.090878,143.924316 Z M117.832256,150.770511 C118.290148,150.770511 118.725878,150.737278 119.139458,150.67081 C119.553038,150.604341 119.922301,150.486177 120.247257,150.316314 C120.572213,150.146451 120.830696,149.913815 121.022716,149.618401 C121.214735,149.322987 121.310743,148.938954 121.310743,148.46629 C121.310743,148.008398 121.214735,147.635443 121.022716,147.347414 C120.830696,147.059385 120.575905,146.834135 120.258335,146.671657 C119.940764,146.509179 119.578887,146.402093 119.172692,146.350395 C118.766497,146.298698 118.349231,146.272849 117.92088,146.272849 L115.88253,146.272849 L115.88253,150.770511 L117.832256,150.770511 Z" id="WIP"></path>
        </g>
    </g>
</svg>